<svg width="20" height="24" viewBox="0 0 20 24" fill="none" xmlns="http://www.w3.org/2000/svg">
<path d="M9.68208 0C4.34339 0 0 4.34339 0 9.68203H1.4063C1.4063 5.1188 5.1188 1.4063 9.68208 1.4063C14.2454 1.4063 17.9579 5.1188 17.9579 9.68203H19.3642C19.3642 4.34339 15.0208 0 9.68208 0Z" fill="#9B6E29"/>
<path d="M17.2316 9.87787C17.1078 8.01168 16.2523 6.18398 14.884 4.86299C13.4369 3.4656 11.5726 2.75212 9.63472 2.85524C7.6729 2.95884 6.04817 3.69295 4.80547 5.0369C3.57308 6.37007 3.08323 8.04028 2.74053 9.1672C2.23147 10.8416 0.779185 11.7674 0.00012207 12.1556V13.696C0.560747 13.538 3.2112 12.66 4.11167 9.47943C4.63198 7.64278 5.82687 4.46456 9.70878 4.25924C13.1317 4.07924 15.6359 7.06668 15.8285 9.9712C16.0198 12.8461 18.5094 14.4878 19.3452 14.9204C19.3579 14.7212 19.364 14.5201 19.364 14.3181V13.2788C18.5394 12.6872 17.3417 11.5317 17.2316 9.87787Z" fill="#9B6E29"/>
<path d="M14.7373 10.0443C14.6468 8.41627 13.8396 6.93352 12.6058 6.07618C11.8121 5.52441 10.8277 5.26378 9.83442 5.34207C8.8214 5.42222 7.89136 5.84925 7.21495 6.54493C6.06365 7.73044 5.5785 9.39174 5.15048 10.8576C5.12376 10.949 5.09751 11.0395 5.07079 11.1295C4.50689 13.0482 2.04909 14.7831 0.0268555 15.0437C0.0620117 15.5176 0.131387 15.9817 0.232168 16.434C1.50909 16.2573 3.31809 15.5195 4.29731 14.7095C5.32298 13.8615 6.05704 12.7608 6.4199 11.5261C6.44662 11.4356 6.47334 11.3442 6.50053 11.2518C6.90131 9.87928 7.31573 8.45986 8.2237 7.52513C9.12843 6.59414 10.7011 6.46477 11.8032 7.23122C12.6873 7.84533 13.2592 8.92955 13.3337 10.1315C13.3886 11.0146 13.6192 12.7463 14.5483 14.4193C15.3846 15.925 17.1607 17.3266 18.6833 17.8906C18.8553 17.4579 18.9969 17.0102 19.1052 16.5499C16.5425 15.6147 14.8952 12.8865 14.7373 10.0443Z" fill="#9B6E29"/>
<path d="M11.8543 9.36037C11.5304 8.73173 10.8151 8.15001 9.94738 8.26767C8.77827 8.42658 7.92931 9.73631 7.42353 12.1617C6.69228 15.6662 1.77486 17.4813 0.662048 17.8432C0.835017 18.2862 1.04033 18.7137 1.27377 19.122C2.07397 18.8478 3.79714 18.1849 5.17578 17.2671C7.19384 15.924 8.41311 14.3031 8.79983 12.4486C9.24139 10.3316 9.848 9.70022 10.1363 9.66131C10.305 9.63834 10.5099 9.82115 10.6041 10.004C10.6168 10.0288 11.8773 12.5344 10.8539 15.5842C9.99889 18.1343 7.46802 20.4749 4.01975 22.1722C4.46459 22.4938 4.93808 22.7783 5.43542 23.0212C8.97603 21.1888 11.2458 18.8388 12.1876 16.0314C13.397 12.4247 11.9176 9.48365 11.8543 9.36037Z" fill="#9B6E29"/>
<path d="M13.1266 18.0495L12.5158 18.3977L11.9035 18.7437C11.9612 18.8459 13.1776 20.9511 15.6766 21.9215C16.0985 21.5882 16.4923 21.2206 16.8537 20.8231C14.3862 20.1997 13.1393 18.0715 13.1266 18.0495Z" fill="#9B6E29"/>
<path d="M14.0004 15.4384L13.4168 15.8303L12.8326 16.2217C12.8575 16.2587 13.4519 17.1414 14.3482 18.0316C15.4727 19.1492 16.5598 19.7806 17.5855 19.9124C17.8541 19.5336 18.096 19.1342 18.3088 18.7179C16.5463 18.6157 14.5554 16.2644 14.0004 15.4384Z" fill="#9B6E29"/>
<path d="M11.7217 20.8907L11.1817 20.2996L10.6652 20.9117C10.045 21.6463 8.59787 22.4891 8.09256 22.7517L8.41647 23.3761L8.71553 23.9522L8.74037 24C8.74834 23.9958 8.77365 23.9827 8.8135 23.9616C9.12381 23.7952 10.321 23.1337 11.2066 22.3547C11.5933 22.7076 12.1572 23.1694 12.7713 23.4966C13.3047 23.3175 13.8176 23.0925 14.3051 22.8267C13.3183 22.2825 11.7302 20.8996 11.7217 20.8907Z" fill="#9B6E29"/>
<path d="M9.17442 13.8376C8.29547 15.9297 6.88026 17.6088 4.96861 18.829C3.69637 19.6409 2.28961 20.0759 1.96753 20.1692C2.27878 20.5789 2.62195 20.9629 2.9932 21.3177C3.50367 21.1555 4.51575 20.7782 5.67314 20.0474C7.17412 19.0995 9.225 17.3473 10.471 14.3823L9.17442 13.8376Z" fill="#9B6E29"/>
</svg>
