<svg width="18" height="24" viewBox="0 0 18 24" fill="none" xmlns="http://www.w3.org/2000/svg">
<path d="M10.5757 18.0055C11.8703 18.4488 13.0135 18.7312 14.656 19.2359C14.025 27.2087 6.48576 24.0425 10.5757 18.0055ZM17.3071 10.6814C17.2221 8.28748 16.8004 5.14721 13.4418 5.63926C11.8673 6.05016 10.704 7.77928 10.1569 10.7625C9.85637 12.4028 10.0311 14.7052 10.3856 16.0853C10.7092 17.0579 10.5991 16.9982 10.947 17.1829C12.2933 17.4862 13.6262 17.8219 14.9835 18.1643C16.3623 17.1905 17.4948 12.0211 17.3071 10.6814ZM6.94205 10.4977C7.29624 9.11733 7.47098 6.81496 7.17062 5.17487C6.6239 2.19146 5.46045 0.462061 3.88573 0.0514437C0.527085 -0.440608 0.105433 2.69962 0.020414 5.09367C-0.167271 6.43312 0.965313 11.6029 2.3443 12.5765C3.70149 12.2341 5.03414 11.8986 6.3809 11.595C6.72834 11.4105 6.61827 11.4703 6.94205 10.4977ZM2.67138 13.6484C3.30214 21.6211 10.8414 18.4549 6.75148 12.4179C5.45686 12.8613 4.3138 13.1437 2.67138 13.6484Z" fill="#38A84F"/>
</svg>
